<svg width="35" height="35" viewBox="0 0 35 35" fill="none" xmlns="http://www.w3.org/2000/svg"><path opacity="0.3" x="0.25" y="0.25" width="26.5" height="26.5" rx="2.75" fill="white" stroke="#BBBBBB" stroke-width="0.6481481481481481" d="M3.889 0.324H31.111A3.565 3.565 0 0 1 34.676 3.889V31.111A3.565 3.565 0 0 1 31.111 34.676H3.889A3.565 3.565 0 0 1 0.324 31.111V3.889A3.565 3.565 0 0 1 3.889 0.324z"/><path fill-rule="evenodd" clip-rule="evenodd" d="M29.155 11.177v15.387a3.239 3.239 0 0 1 -3.238 3.238h-1.62v-1.62h1.62a1.62 1.62 0 0 0 1.619 -1.619V11.177h-3.239a2.429 2.429 0 0 1 -2.429 -2.429V5.509H12.96a1.62 1.62 0 0 0 -1.62 1.62v14.576h-1.62V7.13A3.239 3.239 0 0 1 12.962 3.889h8.907l7.288 7.288ZM12.177 27.925a1.83 1.83 0 0 0 0.649 1.333c0.21 0.175 0.468 0.311 0.774 0.408 0.309 0.099 0.666 0.148 1.077 0.148 0.547 0 1.011 -0.086 1.391 -0.257 0.382 -0.169 0.674 -0.407 0.874 -0.713 0.202 -0.306 0.302 -0.661 0.302 -1.062 0 -0.363 -0.073 -0.664 -0.216 -0.907a1.62 1.62 0 0 0 -0.608 -0.578 3.282 3.282 0 0 0 -0.916 -0.34l-1.006 -0.233a1.571 1.571 0 0 1 -0.653 -0.285 0.599 0.599 0 0 1 -0.233 -0.484c0 -0.253 0.1 -0.46 0.298 -0.622 0.204 -0.163 0.48 -0.246 0.83 -0.246 0.233 0 0.432 0.038 0.6 0.11a1.011 1.011 0 0 1 0.398 0.293 0.907 0.907 0 0 1 0.194 0.417h1.215a1.769 1.769 0 0 0 -0.324 -0.916 1.96 1.96 0 0 0 -0.809 -0.664c-0.398 -0.175 -0.83 -0.259 -1.264 -0.246 -0.474 0 -0.892 0.082 -1.257 0.244 -0.363 0.159 -0.648 0.389 -0.853 0.682a1.763 1.763 0 0 0 -0.307 1.034c0 0.325 0.065 0.609 0.197 0.848 0.134 0.242 0.324 0.438 0.57 0.595 0.246 0.154 0.538 0.271 0.872 0.345l1.001 0.233c0.337 0.079 0.585 0.183 0.751 0.312a0.626 0.626 0 0 1 0.246 0.528 0.817 0.817 0 0 1 -0.137 0.471 0.905 0.905 0 0 1 -0.414 0.311 1.72 1.72 0 0 1 -0.669 0.114c-0.189 0 -0.36 -0.021 -0.519 -0.065 -0.143 -0.039 -0.279 -0.102 -0.402 -0.185a0.936 0.936 0 0 1 -0.412 -0.622h-1.239Zm-4.391 -1.859c0 -0.402 0.054 -0.745 0.165 -1.025 0.097 -0.259 0.267 -0.484 0.49 -0.647 0.227 -0.152 0.495 -0.229 0.769 -0.22 0.244 0 0.459 0.052 0.644 0.156 0.183 0.099 0.336 0.244 0.441 0.421 0.113 0.188 0.18 0.399 0.194 0.617h1.239v-0.117a2.153 2.153 0 0 0 -0.754 -1.561 2.335 2.335 0 0 0 -0.792 -0.441 2.979 2.979 0 0 0 -0.981 -0.157c-0.577 0 -1.069 0.119 -1.475 0.362 -0.406 0.239 -0.713 0.581 -0.927 1.024 -0.211 0.442 -0.318 0.971 -0.318 1.584v0.806c0 0.614 0.104 1.141 0.312 1.581 0.213 0.438 0.521 0.778 0.927 1.014 0.404 0.235 0.897 0.351 1.48 0.351 0.474 0 0.897 -0.089 1.27 -0.266 0.373 -0.178 0.671 -0.421 0.892 -0.735 0.223 -0.321 0.35 -0.7 0.366 -1.091v-0.123h-1.238a1.295 1.295 0 0 1 -0.191 0.587 1.134 1.134 0 0 1 -0.441 0.406 1.413 1.413 0 0 1 -0.648 0.14A1.368 1.368 0 0 1 8.435 28.519a1.348 1.348 0 0 1 -0.485 -0.635 2.751 2.751 0 0 1 -0.165 -1.015v-0.802Zm13.344 3.624H19.587l-2.167 -6.478h1.486l1.452 5.083h0.061l1.439 -5.081h1.423L21.13 29.69v-0.001Z" fill="#0B9BA5"/></svg>