<svg width="35" height="35" viewBox="0 0 35 35" fill="none" xmlns="http://www.w3.org/2000/svg"><path opacity="0.3" x="0.25" y="0.25" width="26.5" height="26.5" rx="2.75" fill="white" stroke="#BBBBBB" stroke-width="0.6481481481481481" d="M3.889 0.324H31.111A3.565 3.565 0 0 1 34.676 3.889V31.111A3.565 3.565 0 0 1 31.111 34.676H3.889A3.565 3.565 0 0 1 0.324 31.111V3.889A3.565 3.565 0 0 1 3.889 0.324z"/><path fill-rule="evenodd" clip-rule="evenodd" d="M27.593 11.177v10.529h-1.619V11.177h-3.239a2.429 2.429 0 0 1 -2.429 -2.429V5.509H11.397a1.62 1.62 0 0 0 -1.62 1.62v14.577H8.159V7.128A3.239 3.239 0 0 1 11.398 3.889h8.906l7.289 7.288ZM11.642 28.653a1.904 1.904 0 0 1 -0.18 -0.727h1.238a0.937 0.937 0 0 0 0.412 0.622c0.114 0.078 0.25 0.14 0.406 0.184 0.153 0.045 0.324 0.066 0.516 0.066 0.266 0 0.487 -0.038 0.669 -0.113a0.905 0.905 0 0 0 0.414 -0.312 0.822 0.822 0 0 0 0.136 -0.471 0.627 0.627 0 0 0 -0.246 -0.528c-0.163 -0.13 -0.415 -0.233 -0.751 -0.312l-1.001 -0.232a2.783 2.783 0 0 1 -0.872 -0.346 1.62 1.62 0 0 1 -0.57 -0.595 1.729 1.729 0 0 1 -0.2 -0.848c0 -0.395 0.104 -0.74 0.309 -1.036 0.207 -0.293 0.493 -0.521 0.856 -0.683a3.072 3.072 0 0 1 1.257 -0.241c0.493 0 0.914 0.08 1.261 0.246 0.353 0.165 0.622 0.386 0.81 0.664 0.194 0.275 0.302 0.581 0.324 0.916h-1.215a0.907 0.907 0 0 0 -0.194 -0.417 1.011 1.011 0 0 0 -0.398 -0.293 1.496 1.496 0 0 0 -0.6 -0.11c-0.35 0 -0.626 0.08 -0.83 0.246a0.764 0.764 0 0 0 -0.298 0.622c0 0.194 0.078 0.355 0.233 0.485 0.193 0.143 0.416 0.241 0.653 0.284l1.006 0.231c0.351 0.082 0.657 0.194 0.916 0.342 0.25 0.136 0.46 0.337 0.608 0.581 0.145 0.239 0.218 0.542 0.218 0.907 0 0.399 -0.101 0.753 -0.303 1.062a1.97 1.97 0 0 1 -0.874 0.71c-0.379 0.17 -0.843 0.257 -1.39 0.257 -0.411 0 -0.771 -0.049 -1.076 -0.146a2.275 2.275 0 0 1 -0.775 -0.408 1.83 1.83 0 0 1 -0.469 -0.607Zm-5.028 -0.053A2.139 2.139 0 0 1 6.481 27.844h1.238a0.933 0.933 0 0 0 0.119 0.438 0.809 0.809 0 0 0 0.735 0.398c0.309 0 0.535 -0.089 0.684 -0.266 0.146 -0.178 0.22 -0.428 0.22 -0.754v-4.446h1.282v4.414c0 0.713 -0.193 1.254 -0.578 1.628 -0.384 0.372 -0.915 0.557 -1.594 0.557a2.577 2.577 0 0 1 -0.92 -0.152 1.854 1.854 0 0 1 -0.66 -0.43 1.847 1.847 0 0 1 -0.394 -0.631Zm14.726 -2.567v0.845c0 0.415 -0.065 0.761 -0.191 1.037a1.396 1.396 0 0 1 -0.521 0.627c-0.229 0.139 -0.494 0.209 -0.762 0.204a1.43 1.43 0 0 1 -0.761 -0.204 1.409 1.409 0 0 1 -0.519 -0.627 2.51 2.51 0 0 1 -0.189 -1.037v-0.846c0 -0.417 0.064 -0.762 0.189 -1.037 0.108 -0.257 0.288 -0.474 0.519 -0.627 0.228 -0.141 0.493 -0.214 0.761 -0.209 0.288 0 0.539 0.069 0.762 0.207 0.232 0.153 0.414 0.372 0.521 0.627 0.126 0.276 0.189 0.621 0.189 1.038Zm1.299 0.84v-0.831c0 -0.611 -0.111 -1.136 -0.332 -1.576a2.364 2.364 0 0 0 -0.955 -1.02c-0.41 -0.237 -0.905 -0.356 -1.483 -0.356 -0.577 0 -1.073 0.119 -1.491 0.356a2.333 2.333 0 0 0 -0.954 1.018c-0.222 0.438 -0.332 0.964 -0.332 1.579v0.83c0 0.609 0.11 1.133 0.332 1.576 0.222 0.439 0.539 0.778 0.954 1.014 0.417 0.236 0.914 0.353 1.491 0.353 0.578 0 1.073 -0.117 1.484 -0.351 0.415 -0.237 0.732 -0.576 0.954 -1.015 0.22 -0.443 0.332 -0.968 0.332 -1.575Zm2.09 -1.515v4.334h-1.208v-6.478h1.072l2.839 4.309h0.052v-4.309h1.213v6.479h-1.063l-2.852 -4.334h-0.052Z" fill="#0C65CC"/></svg>