<svg width="35" height="35" viewBox="0 0 35 35" fill="none" xmlns="http://www.w3.org/2000/svg"><path opacity="0.3" x="0.25" y="0.25" width="26.5" height="26.5" rx="2.75" fill="white" stroke="#BBBBBB" stroke-width="0.6481481481481481" d="M3.889 0.324H31.111A3.565 3.565 0 0 1 34.676 3.889V31.111A3.565 3.565 0 0 1 31.111 34.676H3.889A3.565 3.565 0 0 1 0.324 31.111V3.889A3.565 3.565 0 0 1 3.889 0.324z"/><path fill-rule="evenodd" clip-rule="evenodd" d="M29.167 11.181V26.574A3.241 3.241 0 0 1 25.926 29.815h-1.62v-1.62H25.926a1.62 1.62 0 0 0 1.62 -1.62V11.181h-3.241a2.431 2.431 0 0 1 -2.431 -2.431v-3.241H12.963A1.62 1.62 0 0 0 11.343 7.13v14.583H9.722V7.13A3.241 3.241 0 0 1 12.963 3.889h8.912L29.167 11.181ZM9.074 23.091H6.481v6.479h1.282v-2.174h1.3c0.467 0 0.861 -0.093 1.186 -0.28 0.329 -0.191 0.581 -0.446 0.752 -0.769 0.175 -0.338 0.266 -0.716 0.259 -1.097 0 -0.406 -0.086 -0.771 -0.255 -1.097a1.906 1.906 0 0 0 -0.745 -0.774c-0.324 -0.194 -0.718 -0.29 -1.186 -0.29Zm0.883 2.16a1.289 1.289 0 0 1 -0.137 0.616 0.931 0.931 0 0 1 -0.386 0.39 1.286 1.286 0 0 1 -0.607 0.134h-1.068V24.111h1.069c0.353 0 0.63 0.097 0.83 0.293 0.2 0.198 0.299 0.48 0.299 0.846Zm1.973 -2.16v6.479h2.366c0.648 0 1.189 -0.13 1.616 -0.384 0.433 -0.259 0.771 -0.651 0.964 -1.116 0.21 -0.486 0.318 -1.073 0.318 -1.756 0 -0.681 -0.106 -1.261 -0.318 -1.742a2.311 2.311 0 0 0 -0.954 -1.102c-0.428 -0.253 -0.972 -0.38 -1.629 -0.38H11.93Zm1.281 1.045h0.913c0.402 0 0.73 0.08 0.986 0.246 0.268 0.175 0.469 0.433 0.574 0.735 0.127 0.327 0.191 0.732 0.191 1.22 0.005 0.324 -0.031 0.647 -0.11 0.959 -0.057 0.248 -0.166 0.48 -0.318 0.684a1.296 1.296 0 0 1 -0.541 0.408 2.101 2.101 0 0 1 -0.783 0.134h-0.913v-4.387Zm6.065 2.857v2.577h-1.279v-6.479h4.127v1.058H19.276v1.81h2.603v1.034H19.276Z" fill="#E35930"/></svg>