<svg width="35" height="35" viewBox="0 0 35 35" fill="none" xmlns="http://www.w3.org/2000/svg"><path opacity="0.3" x="0.25" y="0.25" width="26.5" height="26.5" rx="2.75" fill="white" stroke="#BBBBBB" stroke-width="0.6481481481481481" d="M3.889 0.324H31.111A3.565 3.565 0 0 1 34.676 3.889V31.111A3.565 3.565 0 0 1 31.111 34.676H3.889A3.565 3.565 0 0 1 0.324 31.111V3.889A3.565 3.565 0 0 1 3.889 0.324z"/><path d="M22.4 3.889a3.241 3.241 0 0 1 3.241 3.241v1.085h1.08a4.686 4.686 0 0 1 4.685 4.68l0.004 8.639a3.239 3.239 0 0 1 -3.238 3.241h-2.533V26.574a3.241 3.241 0 0 1 -3.241 3.241H11.594a3.241 3.241 0 0 1 -3.241 -3.241v-1.801H5.833a3.241 3.241 0 0 1 -3.241 -3.241V12.898a4.681 4.681 0 0 1 4.681 -4.681l1.079 -0.001 0.001 -1.085a3.241 3.241 0 0 1 3.241 -3.241h10.806Zm-0.003 15.124H11.594a1.081 1.081 0 0 0 -1.08 1.08v6.481c0 0.596 0.484 1.08 1.08 1.08h10.803a1.08 1.08 0 0 0 1.08 -1.08v-6.481a1.08 1.08 0 0 0 -1.08 -1.08Zm4.323 -8.637H7.274A2.52 2.52 0 0 0 4.754 12.898v8.636c0 0.596 0.484 1.08 1.08 1.08h2.52V20.093a3.241 3.241 0 0 1 3.241 -3.241h10.803a3.241 3.241 0 0 1 3.241 3.241v2.52h2.567a1.079 1.079 0 0 0 1.044 -1.079L29.244 12.898a2.526 2.526 0 0 0 -2.524 -2.521ZM22.4 6.05H11.594a1.08 1.08 0 0 0 -1.08 1.08l-0.001 1.085h12.967V7.13a1.081 1.081 0 0 0 -1.08 -1.08Z" fill="#2C76E1"/></svg>